<svg width="335" height="162" viewBox="0 0 335 162" fill="none" xmlns="http://www.w3.org/2000/svg">
<path d="M188.72 144.588C195.995 153.076 206.705 158.532 217.618 160.35C222.669 161.159 227.721 161.361 232.773 160.451C237.522 159.643 242.271 157.521 246.515 155.197C248.535 154.086 250.455 152.772 252.274 151.459C254.598 149.741 256.922 148.024 259.044 146.104C263.085 142.365 265.712 137.213 267.43 132.06C269.248 126.603 270.057 120.844 270.36 115.186C270.663 108.922 270.461 102.354 269.248 96.1907C267.935 89.8253 264.803 83.7629 259.246 80.1255C254.396 76.9933 248.333 76.5892 243.281 79.5193C238.735 82.1463 235.501 86.8951 234.087 91.846C232.571 97.3021 233.481 102.96 236.209 107.911C241.968 118.318 254.396 124.482 265.712 126.401C271.572 127.412 277.837 127.412 283.596 125.593C289.759 123.572 294.71 119.531 298.247 114.075C301.985 108.214 304.309 101.445 306.532 94.9782C308.957 88.0065 311.079 80.9338 312.695 73.7601C316.029 59.5136 317.949 44.8629 318.454 30.2122C318.555 26.5748 318.555 23.0385 318.454 19.4011C318.353 16.1679 313.301 16.1679 313.402 19.4011C314.009 46.6816 309.26 73.9621 299.56 99.4239C297.438 104.981 295.114 110.942 290.972 115.287C287.334 119.127 282.383 121.248 277.231 121.855C271.774 122.461 266.217 121.754 261.064 120.137C256.113 118.621 251.162 116.297 247.121 112.963C243.18 109.73 239.947 105.587 238.735 100.535C237.724 96.3928 238.937 91.745 241.261 88.1076C243.585 84.6723 247.121 82.2473 251.162 82.4494C256.214 82.7525 260.155 86.8951 262.277 91.2398C265.005 96.7969 265.106 103.567 265.308 109.629C265.409 114.58 265.005 119.632 264.095 124.583C263.085 129.432 261.569 134.282 258.841 138.526C256.214 142.568 252.072 145.397 248.232 148.226C244.595 150.853 240.553 152.772 236.31 154.288C232.369 155.804 228.631 156.107 224.387 156.006C214.991 155.703 205.19 152.267 197.713 146.306C195.692 144.689 193.974 142.972 192.257 141.052C191.347 140.042 189.63 140.143 188.72 141.052C187.71 142.062 187.811 143.578 188.72 144.588Z" fill="#EEEDED"/>
<path d="M288.951 63.252C294.306 51.9357 300.571 41.1245 307.542 30.7175C309.26 28.1915 311.079 25.5645 312.897 23.1395C313.605 22.2302 314.312 21.0177 315.322 20.3105C316.029 19.8053 316.232 20.0074 316.737 20.7146C317.545 21.725 318.151 22.8365 318.758 23.9479C319.566 25.2614 320.273 26.6759 320.98 28.0905C322.395 30.7175 323.607 33.4455 324.719 36.2746C327.144 42.539 328.962 49.1066 330.074 55.6741C330.276 56.9876 331.994 57.7959 333.206 57.3918C334.621 56.9876 335.227 55.6741 334.924 54.2596C333.812 47.7931 332.095 41.4276 329.67 35.2642C328.457 32.132 327.144 28.9998 325.628 26.0697C324.214 23.3416 322.799 20.4115 320.98 17.9866C318.96 15.2585 315.827 14.0461 312.796 15.8648C310.068 17.5824 308.249 20.8157 306.431 23.3416C302.49 28.8988 298.752 34.658 295.316 40.5182C291.477 47.0858 287.84 53.7544 284.606 60.625C284 61.8375 284.303 63.353 285.516 64.0603C286.627 64.8686 288.446 64.4645 288.951 63.252Z" fill="#EEEDED"/>
<path d="M45.6 58V46H1.2V88H45.6V76H16.8V72.1H45.6V61.9H16.8V58H45.6ZM89.3719 46L77.5519 77.2L65.7319 46H48.5719L65.9719 88H89.1319L106.532 46H89.3719ZM153.966 58V46H109.566V88H153.966V76H125.166V72.1H153.966V61.9H125.166V58H153.966ZM196.057 46V70.78L177.937 46H157.537V88H173.137V63.22L191.257 88H211.657V46H196.057ZM266.88 46H215.28V59.2H233.28V88H248.88V59.2H266.88V46ZM269.288 73.18C269.288 85.66 278.888 88.6 296.108 88.6C313.328 88.6 322.928 85.66 322.928 74.08C322.928 63.1 312.668 61.96 296.108 61.3C286.988 60.94 285.488 61 285.488 59.38C285.488 57.76 286.988 57.4 294.308 57.4C301.928 57.4 305.528 57.88 305.528 60.1H321.128C321.128 49.36 311.888 45.4 295.508 45.4C278.948 45.4 269.888 49.36 269.888 58.6C269.888 68.38 277.148 71.5 296.108 72.1C305.948 72.4 307.328 72.64 307.328 74.44C307.328 76 305.948 76.6 296.708 76.6C286.808 76.6 284.888 75.22 284.888 73.18H269.288Z" fill="#181818"/>
</svg>
