<svg width="14" height="14" viewBox="0 0 14 14" fill="none" xmlns="http://www.w3.org/2000/svg">
<path d="M9.24 7.11847C9.24 7.51801 9.10863 7.90857 8.86249 8.24078C8.61636 8.57298 8.26652 8.8319 7.85721 8.9848C7.4479 9.1377 6.99752 9.1777 6.563 9.09975C6.12848 9.02181 5.72935 8.82941 5.41608 8.5469C5.10281 8.26438 4.88947 7.90443 4.80304 7.51257C4.71661 7.12071 4.76097 6.71454 4.93051 6.34541C5.10005 5.97629 5.38716 5.66079 5.75552 5.43882C6.12389 5.21685 6.55697 5.09837 7 5.09837C7.59388 5.09899 8.16323 5.31201 8.58317 5.69072C9.0031 6.06943 9.23932 6.5829 9.24 7.11847ZM14 4.34084V9.89611C13.9988 10.8334 13.5854 11.7319 12.8506 12.3947C12.1157 13.0574 11.1193 13.4302 10.08 13.4313H3.92C2.88071 13.4302 1.88433 13.0574 1.14944 12.3947C0.414554 11.7319 0.00117703 10.8334 0 9.89611V4.34084C0.00117703 3.40358 0.414554 2.50501 1.14944 1.84226C1.88433 1.17952 2.88071 0.806726 3.92 0.805664H10.08C11.1193 0.806726 12.1157 1.17952 12.8506 1.84226C13.5854 2.50501 13.9988 3.40358 14 4.34084ZM10.36 7.11847C10.36 6.51917 10.1629 5.93332 9.79374 5.43501C9.42454 4.93671 8.89978 4.54833 8.28582 4.31898C7.67186 4.08964 6.99627 4.02963 6.3445 4.14655C5.69272 4.26347 5.09403 4.55206 4.62412 4.97583C4.15422 5.39961 3.83421 5.93953 3.70456 6.52732C3.57492 7.11511 3.64145 7.72437 3.89577 8.27806C4.15008 8.83175 4.58073 9.30499 5.13328 9.63795C5.68583 9.9709 6.33545 10.1486 7 10.1486C7.89082 10.1477 8.74486 9.82817 9.37477 9.26011C10.0047 8.69204 10.359 7.92184 10.36 7.11847ZM11.48 3.83581C11.48 3.68599 11.4307 3.53952 11.3384 3.41495C11.2461 3.29037 11.1149 3.19327 10.9615 3.13594C10.808 3.0786 10.6391 3.0636 10.4761 3.09283C10.3132 3.12206 10.1635 3.19421 10.046 3.30015C9.92855 3.4061 9.84855 3.54108 9.81614 3.68802C9.78373 3.83497 9.80036 3.98729 9.86394 4.12571C9.92752 4.26413 10.0352 4.38244 10.1733 4.46568C10.3115 4.54892 10.4739 4.59335 10.64 4.59335C10.8628 4.59335 11.0764 4.51354 11.234 4.37147C11.3915 4.22941 11.48 4.03672 11.48 3.83581Z" fill="white" fill-opacity="0.8"/>
</svg>
