<svg width="18" height="18" viewBox="0 0 18 18" fill="none" xmlns="http://www.w3.org/2000/svg">
<path d="M11.3626 6.30007C10.7878 6.2981 10.2182 6.4095 9.68644 6.62788C9.1547 6.84627 8.67124 7.16736 8.26373 7.57279C7.85621 7.97821 7.53264 8.46002 7.31152 8.99062C7.0904 9.52123 6.97608 10.0902 6.9751 10.6651V15.0751C6.9751 15.2541 7.04621 15.4258 7.1728 15.5524C7.29939 15.679 7.47108 15.7501 7.6501 15.7501H9.2251C9.40412 15.7501 9.57581 15.679 9.70239 15.5524C9.82898 15.4258 9.9001 15.2541 9.9001 15.0751V10.6651C9.89995 10.4606 9.94289 10.2584 10.0261 10.0717C10.1094 9.88496 10.231 9.71785 10.3831 9.58128C10.5353 9.44471 10.7145 9.34173 10.9091 9.27906C11.1037 9.21639 11.3094 9.19544 11.5126 9.21757C11.8771 9.26349 12.2121 9.44157 12.454 9.71806C12.6959 9.99454 12.828 10.3502 12.8251 10.7176V15.0751C12.8251 15.2541 12.8962 15.4258 13.0228 15.5524C13.1494 15.679 13.3211 15.7501 13.5001 15.7501H15.0751C15.2541 15.7501 15.4258 15.679 15.5524 15.5524C15.679 15.4258 15.7501 15.2541 15.7501 15.0751V10.6651C15.7491 10.0902 15.6348 9.52123 15.4137 8.99062C15.1926 8.46002 14.869 7.97821 14.4615 7.57279C14.054 7.16736 13.5705 6.84627 13.0388 6.62788C12.507 6.4095 11.9374 6.2981 11.3626 6.30007Z" fill="white" fill-opacity="0.8"/>
<path d="M4.95 6.9751H2.925C2.55221 6.9751 2.25 7.27731 2.25 7.6501V15.0751C2.25 15.4479 2.55221 15.7501 2.925 15.7501H4.95C5.32279 15.7501 5.625 15.4479 5.625 15.0751V7.6501C5.625 7.27731 5.32279 6.9751 4.95 6.9751Z" fill="white" fill-opacity="0.8"/>
<path d="M3.9375 5.625C4.86948 5.625 5.625 4.86948 5.625 3.9375C5.625 3.00552 4.86948 2.25 3.9375 2.25C3.00552 2.25 2.25 3.00552 2.25 3.9375C2.25 4.86948 3.00552 5.625 3.9375 5.625Z" fill="white" fill-opacity="0.8"/>
</svg>
