<svg width="18" height="18" viewBox="0 0 18 18" fill="none" xmlns="http://www.w3.org/2000/svg">
<g clip-path="url(#clip0_74_585)">
<path d="M6.06021 15.0001C7.16924 15.0372 8.27444 14.8516 9.31052 14.4543C10.3466 14.057 11.2925 13.4561 12.0924 12.687C12.8923 11.9179 13.5298 10.9962 13.9674 9.97651C14.4051 8.9568 14.6338 7.85972 14.6402 6.75009C15.1485 6.12115 15.5258 5.39697 15.7502 4.62009C15.767 4.55871 15.7656 4.4938 15.7463 4.43317C15.727 4.37255 15.6906 4.31879 15.6415 4.27837C15.5924 4.23795 15.5326 4.2126 15.4694 4.20536C15.4062 4.19813 15.3422 4.20932 15.2852 4.23759C15.0193 4.36558 14.72 4.40693 14.4293 4.3558C14.1387 4.30467 13.8715 4.16365 13.6652 3.95259C13.4019 3.66428 13.0834 3.43174 12.7286 3.26876C12.3738 3.10579 11.9899 3.01568 11.5997 3.00379C11.2094 2.9919 10.8207 3.05847 10.4567 3.19955C10.0926 3.34062 9.76056 3.55334 9.48021 3.82509C9.09636 4.19684 8.81521 4.66156 8.66407 5.1741C8.51294 5.68664 8.49697 6.22956 8.61771 6.75009C6.10521 6.90009 4.38021 5.70759 3.00021 4.07259C2.95876 4.02564 2.90452 3.99178 2.84414 3.97515C2.78376 3.95851 2.71984 3.95981 2.66018 3.9789C2.60053 3.99799 2.54773 4.03404 2.50822 4.08264C2.46871 4.13124 2.44421 4.1903 2.43771 4.25259C2.17482 5.71091 2.36446 7.21476 2.98118 8.56215C3.59789 9.90954 4.61215 11.0359 5.88771 11.7901C5.03244 12.771 3.83137 13.3836 2.53521 13.5001C2.46577 13.5116 2.40167 13.5445 2.35188 13.5943C2.30208 13.6441 2.26909 13.7081 2.25752 13.7776C2.24595 13.847 2.25638 13.9183 2.28734 13.9815C2.31831 14.0447 2.36826 14.0967 2.43021 14.1301C3.55785 14.6936 4.79964 14.9912 6.06021 15.0001Z" fill="white" fill-opacity="0.8"/>
</g>
<defs>
<clipPath id="clip0_74_585">
<rect width="18" height="18" fill="white"/>
</clipPath>
</defs>
</svg>
